<svg width="35" height="35" viewBox="0 0 35 35" fill="none" xmlns="http://www.w3.org/2000/svg">
<rect width="34.1306" height="34.1306" rx="13.1271" fill="#FFDECF"/>
<path d="M24.3591 26.774C23.9973 25.5617 24.4207 24.2627 24.8935 23.0874C25.694 21.2353 26.1309 19.2457 26.1803 17.2276C26.1803 13.5863 24.9223 9.82957 22.2213 7.30996C20.8464 6.05931 19.0773 5.33287 17.2228 5.25749C15.3683 5.18212 13.5463 5.76261 12.0751 6.89759C8.86433 9.37184 7.83241 13.5409 7.87763 17.4255V19.2894M21.1483 10.8894C19.5367 8.82751 17.3209 8.00276 15.0474 9.00896C13.2632 9.80072 12.0709 11.5409 11.4625 13.343C10.6937 15.6111 11.0514 17.9905 10.8006 20.3328C10.6649 21.6565 10.1922 23.0256 9.15617 23.8421M22.3035 12.9884C22.8119 14.336 23.0683 15.7661 23.0599 17.2069C23.0513 19.028 22.6295 20.8232 21.8266 22.4565C21.3703 23.3926 20.4083 25.0421 19.1338 24.3946C18.0937 23.8668 18.2664 22.6462 18.5624 21.7142C19.1256 19.9451 19.9478 18.4152 20.0301 16.51C20.1082 14.7245 19.5491 12.8482 17.7813 12.0976C17.2782 11.8809 16.7175 11.8382 16.1875 11.9763C15.6575 12.1144 15.1884 12.4255 14.8542 12.8605C13.3536 14.9224 14.2005 17.2069 13.5058 19.4791M16.289 19.842C15.6065 21.7554 14.8254 24.0359 15.4667 26.0648C16.252 28.539 19.0763 29.3885 21.3456 28.5885M13.1029 22.2379C12.8898 23.0232 12.5848 23.7803 12.1943 24.4936C11.8022 25.2097 11.2367 25.8153 10.5498 26.2544M16.9262 17.174C17.0848 16.4751 17.1293 15.7551 17.0577 15.042C17.1472 15.7546 17.1025 16.4778 16.9262 17.174Z" stroke="#E95322" stroke-width="1.42515" stroke-linecap="round" stroke-linejoin="round"/>
</svg>
