<svg width="43" height="31" viewBox="0 0 43 31" fill="none" xmlns="http://www.w3.org/2000/svg">
<path d="M1.44458 22.0281V22.6925C1.44611 24.3176 2.09272 25.8757 3.24238 27.0243C4.39203 28.1729 5.95073 28.818 7.57582 28.818H35.3135C36.9386 28.818 38.4971 28.1729 39.6468 27.0243C40.7964 25.8757 41.443 24.3176 41.4446 22.6925V7.57558C41.4446 6.77042 41.286 5.97313 40.9779 5.22926C40.6698 4.48539 40.2181 3.80949 39.6488 3.24016C39.0794 2.67082 38.4035 2.21915 37.6597 1.91103C36.9158 1.60291 36.1186 1.44434 35.3135 1.44434H7.57582C6.77066 1.44434 5.97337 1.60291 5.2295 1.91103C4.48563 2.21915 3.80973 2.67082 3.2404 3.24016C2.67107 3.80949 2.2194 4.48539 1.91128 5.22926C1.60316 5.97313 1.44458 6.77042 1.44458 7.57558V21.9529M1.45614 8.0494H41.4273M7.06723 15.4634H10.3842M7.06723 21.2017H15.088M25.5359 21.2017H28.824M32.9499 21.2017H36.238" stroke="#E95322" stroke-width="2.88934" stroke-linecap="round" stroke-linejoin="round"/>
</svg>
